<mxfile host="Electron" modified="2024-05-21T12:49:56.424Z" agent="Mozilla/5.0 (Windows NT 10.0; Win64; x64) AppleWebKit/537.36 (KHTML, like Gecko) draw.io/24.4.0 Chrome/120.0.6099.109 Electron/28.1.0 Safari/537.36" etag="XQgYHz92wTIXCFMD0Koh" version="24.4.0" type="device">
  <diagram name="Page-1" id="NEZsRhUh_MJZNZiLh832">
    <mxGraphModel dx="746" dy="436" grid="1" gridSize="1" guides="1" tooltips="1" connect="1" arrows="1" fold="1" page="1" pageScale="1" pageWidth="850" pageHeight="1100" math="0" shadow="0">
      <root>
        <mxCell id="0" />
        <mxCell id="1" parent="0" />
        <mxCell id="t-QKqvcx3VqL5Q99w8yX-17" value="One-hot encoding" style="edgeStyle=orthogonalEdgeStyle;rounded=0;orthogonalLoop=1;jettySize=auto;html=1;exitX=0.5;exitY=1;exitDx=0;exitDy=0;entryX=0.5;entryY=0;entryDx=0;entryDy=0;jumpSize=3;startSize=6;endSize=3;" edge="1" parent="1" source="t-QKqvcx3VqL5Q99w8yX-1" target="t-QKqvcx3VqL5Q99w8yX-4">
          <mxGeometry relative="1" as="geometry" />
        </mxCell>
        <mxCell id="t-QKqvcx3VqL5Q99w8yX-1" value="Discrete Features" style="rounded=1;whiteSpace=wrap;html=1;fillColor=#d5e8d4;strokeColor=#82b366;" vertex="1" parent="1">
          <mxGeometry x="240" y="202" width="225" height="33" as="geometry" />
        </mxCell>
        <mxCell id="t-QKqvcx3VqL5Q99w8yX-13" style="edgeStyle=orthogonalEdgeStyle;rounded=0;orthogonalLoop=1;jettySize=auto;html=1;exitX=0.5;exitY=1;exitDx=0;exitDy=0;entryX=0.75;entryY=0;entryDx=0;entryDy=0;jumpSize=3;startSize=6;endSize=3;" edge="1" parent="1" source="t-QKqvcx3VqL5Q99w8yX-2" target="t-QKqvcx3VqL5Q99w8yX-1">
          <mxGeometry relative="1" as="geometry" />
        </mxCell>
        <mxCell id="t-QKqvcx3VqL5Q99w8yX-16" value="Discretization" style="edgeLabel;html=1;align=center;verticalAlign=middle;resizable=0;points=[];" vertex="1" connectable="0" parent="t-QKqvcx3VqL5Q99w8yX-13">
          <mxGeometry x="-0.1575" y="-1" relative="1" as="geometry">
            <mxPoint as="offset" />
          </mxGeometry>
        </mxCell>
        <mxCell id="t-QKqvcx3VqL5Q99w8yX-2" value="Continuous Features" style="rounded=1;whiteSpace=wrap;html=1;fillColor=#fff2cc;strokeColor=#d6b656;" vertex="1" parent="1">
          <mxGeometry x="360" y="121" width="206" height="33" as="geometry" />
        </mxCell>
        <mxCell id="t-QKqvcx3VqL5Q99w8yX-19" value="Create interaction features" style="edgeStyle=orthogonalEdgeStyle;rounded=0;orthogonalLoop=1;jettySize=auto;html=1;exitX=0.5;exitY=1;exitDx=0;exitDy=0;jumpSize=3;startSize=6;endSize=3;" edge="1" parent="1" source="t-QKqvcx3VqL5Q99w8yX-4" target="t-QKqvcx3VqL5Q99w8yX-18">
          <mxGeometry relative="1" as="geometry" />
        </mxCell>
        <mxCell id="t-QKqvcx3VqL5Q99w8yX-4" value="One-hot encoded categorical features" style="rounded=1;whiteSpace=wrap;html=1;fillColor=#d5e8d4;strokeColor=#82b366;" vertex="1" parent="1">
          <mxGeometry x="240" y="288" width="226" height="30" as="geometry" />
        </mxCell>
        <mxCell id="t-QKqvcx3VqL5Q99w8yX-9" style="edgeStyle=orthogonalEdgeStyle;rounded=0;orthogonalLoop=1;jettySize=auto;html=1;exitX=0.5;exitY=1;exitDx=0;exitDy=0;jumpSize=3;endSize=3;startSize=6;" edge="1" parent="1" source="t-QKqvcx3VqL5Q99w8yX-8" target="t-QKqvcx3VqL5Q99w8yX-1">
          <mxGeometry relative="1" as="geometry" />
        </mxCell>
        <mxCell id="t-QKqvcx3VqL5Q99w8yX-10" style="edgeStyle=orthogonalEdgeStyle;rounded=0;orthogonalLoop=1;jettySize=auto;html=1;jumpSize=3;startSize=6;endSize=3;" edge="1" parent="1" source="t-QKqvcx3VqL5Q99w8yX-8" target="t-QKqvcx3VqL5Q99w8yX-2">
          <mxGeometry relative="1" as="geometry">
            <Array as="points">
              <mxPoint x="352" y="82" />
              <mxPoint x="476" y="82" />
            </Array>
          </mxGeometry>
        </mxCell>
        <mxCell id="t-QKqvcx3VqL5Q99w8yX-8" value="Original Feature Space" style="rounded=1;whiteSpace=wrap;html=1;fillColor=#f8cecc;strokeColor=#b85450;" vertex="1" parent="1">
          <mxGeometry x="239.5" y="40" width="225" height="32" as="geometry" />
        </mxCell>
        <mxCell id="t-QKqvcx3VqL5Q99w8yX-21" style="edgeStyle=orthogonalEdgeStyle;rounded=0;orthogonalLoop=1;jettySize=auto;html=1;exitX=0.5;exitY=1;exitDx=0;exitDy=0;jumpSize=3;startSize=6;endSize=3;" edge="1" parent="1" source="t-QKqvcx3VqL5Q99w8yX-18" target="t-QKqvcx3VqL5Q99w8yX-20">
          <mxGeometry relative="1" as="geometry" />
        </mxCell>
        <mxCell id="t-QKqvcx3VqL5Q99w8yX-18" value="Feature Interactions" style="rounded=1;whiteSpace=wrap;html=1;fillColor=#d5e8d4;strokeColor=#82b366;" vertex="1" parent="1">
          <mxGeometry x="240" y="363" width="226" height="30" as="geometry" />
        </mxCell>
        <mxCell id="t-QKqvcx3VqL5Q99w8yX-23" style="edgeStyle=orthogonalEdgeStyle;rounded=0;orthogonalLoop=1;jettySize=auto;html=1;exitX=0.5;exitY=1;exitDx=0;exitDy=0;entryX=0.5;entryY=0;entryDx=0;entryDy=0;" edge="1" parent="1" source="t-QKqvcx3VqL5Q99w8yX-20" target="t-QKqvcx3VqL5Q99w8yX-22">
          <mxGeometry relative="1" as="geometry" />
        </mxCell>
        <mxCell id="t-QKqvcx3VqL5Q99w8yX-20" value="Standard preprocessing techniques" style="rounded=0;whiteSpace=wrap;html=1;fillColor=#ffe6cc;strokeColor=#d79b00;" vertex="1" parent="1">
          <mxGeometry x="239.5" y="436" width="226" height="45" as="geometry" />
        </mxCell>
        <mxCell id="t-QKqvcx3VqL5Q99w8yX-22" value="Machine Learning Model for Regression" style="rounded=0;whiteSpace=wrap;html=1;fillColor=#dae8fc;strokeColor=#6c8ebf;" vertex="1" parent="1">
          <mxGeometry x="240" y="525" width="225" height="45" as="geometry" />
        </mxCell>
      </root>
    </mxGraphModel>
  </diagram>
</mxfile>
